<svg version="1.1" id="Layer_1" xmlns="http://www.w3.org/2000/svg" xmlns:xlink="http://www.w3.org/1999/xlink" x="0px" y="0px"
	 width="100%" viewBox="0 0 1024 1024" enable-background="new 0 0 1024 1024" xml:space="preserve">
<path fill="#000000" opacity="1.000000" stroke="none" 
	d="
M545.000000,1025.000000 
	C363.333344,1025.000000 182.166672,1025.000000 1.000000,1025.000000 
	C1.000000,683.666687 1.000000,342.333344 1.000000,1.000000 
	C342.333344,1.000000 683.666687,1.000000 1025.000000,1.000000 
	C1025.000000,342.333344 1025.000000,683.666687 1025.000000,1025.000000 
	C865.166687,1025.000000 705.333313,1025.000000 545.000000,1025.000000 
M770.370117,461.849945 
	C755.820496,513.607666 741.270874,565.365356 726.679138,617.272644 
	C724.645447,617.099182 723.070190,616.964844 721.536377,616.834045 
	C708.536011,556.987244 695.630493,497.577057 682.704956,438.074768 
	C662.018677,438.074768 641.596741,438.074768 620.869812,438.074768 
	C641.888184,526.602234 662.835327,614.829529 683.751770,702.927734 
	C707.422119,702.927734 730.542480,702.927734 753.703735,702.927734 
	C769.508362,644.166199 785.248657,585.617615 801.029297,527.079956 
	C801.578125,525.044006 801.380127,521.675964 804.850525,522.686279 
	C806.349548,523.122681 807.943420,525.250854 808.411560,526.915161 
	C819.701477,567.049500 830.842224,607.225769 842.015259,647.393066 
	C847.166504,665.912109 852.329102,684.428040 857.471863,702.892578 
	C881.120361,702.892578 904.388855,702.892578 927.672791,702.892578 
	C948.417419,614.518311 969.101318,526.402649 989.848938,438.015442 
	C969.628845,438.015442 949.849243,438.015442 929.972229,438.015442 
	C929.657593,438.924286 929.301147,439.679108 929.134766,440.473755 
	C917.109558,497.916504 905.051086,555.352417 893.193909,612.829895 
	C892.380493,616.773010 890.982422,617.985779 887.008850,616.710938 
	C869.712585,557.255005 852.370850,497.642700 835.021423,438.003937 
	C815.601807,438.003937 796.472656,438.003937 777.132080,438.003937 
	C774.964783,445.773224 772.826660,453.437958 770.370117,461.849945 
M229.442200,506.170776 
	C235.935577,517.614258 236.790710,530.228088 236.809280,542.932800 
	C236.884583,594.432495 236.840759,645.932312 236.840881,697.432129 
	C236.840881,699.215942 236.840897,700.999695 236.840897,702.919312 
	C259.198883,702.919312 281.104218,702.919312 303.357422,702.919312 
	C303.357422,701.554138 303.357452,700.419983 303.357422,699.285828 
	C303.356476,644.119385 303.480438,588.952332 303.245728,533.786926 
	C303.200531,523.166687 302.477844,512.435181 300.792725,501.960114 
	C297.370575,480.686707 289.145111,461.648865 271.168030,448.361145 
	C258.824921,439.237701 244.635361,434.978607 229.418884,433.575104 
	C192.849869,430.202148 161.389786,439.193604 139.023941,470.455048 
	C136.989075,473.299316 134.915726,473.908447 131.484116,471.917572 
	C131.484116,425.196777 131.484116,378.288605 131.484116,331.489868 
	C109.022797,331.489868 87.105682,331.489868 65.306274,331.489868 
	C65.306274,455.566559 65.306274,579.315125 65.306274,702.819397 
	C87.551018,702.819397 109.464455,702.819397 131.685486,702.819397 
	C131.685486,700.664368 131.685486,698.855835 131.685471,697.047241 
	C131.685410,654.380737 131.615341,611.714050 131.746704,569.047974 
	C131.771790,560.901428 132.150024,552.704346 133.120438,544.621155 
	C137.521927,507.957916 161.312698,487.219482 196.559204,489.155396 
	C209.713745,489.877869 221.444916,493.709045 229.442200,506.170776 
M375.402740,640.036682 
	C390.042236,670.386658 413.305023,690.837891 445.428894,701.191895 
	C467.368530,708.263306 489.807037,709.512390 512.552979,707.073669 
	C544.235474,703.676697 569.737976,689.486694 588.110168,663.193237 
	C594.769714,653.662415 599.706543,643.266907 602.825195,631.920959 
	C587.506653,623.512268 572.541687,615.239807 557.513428,607.084045 
	C553.100647,604.689209 550.718506,605.755371 549.003601,610.701660 
	C545.745239,620.099731 541.012573,628.608459 533.854004,635.582886 
	C523.386414,645.781250 510.626099,650.232422 496.161469,651.556580 
	C468.628845,654.077148 444.342804,638.754517 436.011017,612.408020 
	C427.873047,586.674316 428.162384,560.592041 434.105011,534.518066 
	C436.728912,523.005249 441.778351,512.384583 450.640778,504.325775 
	C480.329620,477.328949 527.691345,486.267975 545.816711,522.083679 
	C548.338013,527.065735 550.766479,527.698303 555.496399,524.384766 
	C563.670593,518.658386 571.787842,512.850708 579.921875,507.067169 
	C586.128113,502.654327 592.323425,498.226044 598.540344,493.792664 
	C588.193970,466.525818 569.141968,448.719177 542.070862,440.228516 
	C510.359924,430.282684 478.113312,429.633881 446.188568,439.401978 
	C416.774170,448.402039 394.364014,466.560242 379.264801,493.540710 
	C369.606201,510.799530 364.399109,529.429443 362.565338,548.976929 
	C359.650970,580.044373 361.858978,610.485535 375.402740,640.036682 
z"/>
<path fill="#FEFEFE" opacity="1.000000" stroke="none" 
	d="
M770.529297,461.476318 
	C772.826660,453.437958 774.964783,445.773224 777.132080,438.003937 
	C796.472656,438.003937 815.601807,438.003937 835.021423,438.003937 
	C852.370850,497.642700 869.712585,557.255005 887.008850,616.710938 
	C890.982422,617.985779 892.380493,616.773010 893.193909,612.829895 
	C905.051086,555.352417 917.109558,497.916504 929.134766,440.473755 
	C929.301147,439.679108 929.657593,438.924286 929.972229,438.015442 
	C949.849243,438.015442 969.628845,438.015442 989.848938,438.015442 
	C969.101318,526.402649 948.417419,614.518311 927.672791,702.892578 
	C904.388855,702.892578 881.120361,702.892578 857.471863,702.892578 
	C852.329102,684.428040 847.166504,665.912109 842.015259,647.393066 
	C830.842224,607.225769 819.701477,567.049500 808.411560,526.915161 
	C807.943420,525.250854 806.349548,523.122681 804.850525,522.686279 
	C801.380127,521.675964 801.578125,525.044006 801.029297,527.079956 
	C785.248657,585.617615 769.508362,644.166199 753.703735,702.927734 
	C730.542480,702.927734 707.422119,702.927734 683.751770,702.927734 
	C662.835327,614.829529 641.888184,526.602234 620.869812,438.074768 
	C641.596741,438.074768 662.018677,438.074768 682.704956,438.074768 
	C695.630493,497.577057 708.536011,556.987244 721.536377,616.834045 
	C723.070190,616.964844 724.645447,617.099182 726.679138,617.272644 
	C741.270874,565.365356 755.820496,513.607666 770.529297,461.476318 
z"/>
<path fill="#FEFEFE" opacity="1.000000" stroke="none" 
	d="
M229.257660,505.854065 
	C221.444916,493.709045 209.713745,489.877869 196.559204,489.155396 
	C161.312698,487.219482 137.521927,507.957916 133.120438,544.621155 
	C132.150024,552.704346 131.771790,560.901428 131.746704,569.047974 
	C131.615341,611.714050 131.685410,654.380737 131.685471,697.047241 
	C131.685486,698.855835 131.685486,700.664368 131.685486,702.819397 
	C109.464455,702.819397 87.551018,702.819397 65.306274,702.819397 
	C65.306274,579.315125 65.306274,455.566559 65.306274,331.489868 
	C87.105682,331.489868 109.022797,331.489868 131.484116,331.489868 
	C131.484116,378.288605 131.484116,425.196777 131.484116,471.917572 
	C134.915726,473.908447 136.989075,473.299316 139.023941,470.455048 
	C161.389786,439.193604 192.849869,430.202148 229.418884,433.575104 
	C244.635361,434.978607 258.824921,439.237701 271.168030,448.361145 
	C289.145111,461.648865 297.370575,480.686707 300.792725,501.960114 
	C302.477844,512.435181 303.200531,523.166687 303.245728,533.786926 
	C303.480438,588.952332 303.356476,644.119385 303.357422,699.285828 
	C303.357452,700.419983 303.357422,701.554138 303.357422,702.919312 
	C281.104218,702.919312 259.198883,702.919312 236.840897,702.919312 
	C236.840897,700.999695 236.840881,699.215942 236.840881,697.432129 
	C236.840759,645.932312 236.884583,594.432495 236.809280,542.932800 
	C236.790710,530.228088 235.935577,517.614258 229.257660,505.854065 
z"/>
<path fill="#FEFEFE" opacity="1.000000" stroke="none" 
	d="
M375.236267,639.699097 
	C361.858978,610.485535 359.650970,580.044373 362.565338,548.976929 
	C364.399109,529.429443 369.606201,510.799530 379.264801,493.540710 
	C394.364014,466.560242 416.774170,448.402039 446.188568,439.401978 
	C478.113312,429.633881 510.359924,430.282684 542.070862,440.228516 
	C569.141968,448.719177 588.193970,466.525818 598.540344,493.792664 
	C592.323425,498.226044 586.128113,502.654327 579.921875,507.067169 
	C571.787842,512.850708 563.670593,518.658386 555.496399,524.384766 
	C550.766479,527.698303 548.338013,527.065735 545.816711,522.083679 
	C527.691345,486.267975 480.329620,477.328949 450.640778,504.325775 
	C441.778351,512.384583 436.728912,523.005249 434.105011,534.518066 
	C428.162384,560.592041 427.873047,586.674316 436.011017,612.408020 
	C444.342804,638.754517 468.628845,654.077148 496.161469,651.556580 
	C510.626099,650.232422 523.386414,645.781250 533.854004,635.582886 
	C541.012573,628.608459 545.745239,620.099731 549.003601,610.701660 
	C550.718506,605.755371 553.100647,604.689209 557.513428,607.084045 
	C572.541687,615.239807 587.506653,623.512268 602.825195,631.920959 
	C599.706543,643.266907 594.769714,653.662415 588.110168,663.193237 
	C569.737976,689.486694 544.235474,703.676697 512.552979,707.073669 
	C489.807037,709.512390 467.368530,708.263306 445.428894,701.191895 
	C413.305023,690.837891 390.042236,670.386658 375.236267,639.699097 
z"/>
</svg>