<svg version="1.1" id="Layer_1" xmlns="http://www.w3.org/2000/svg" xmlns:xlink="http://www.w3.org/1999/xlink" x="0px" y="0px"
	 width="100%" viewBox="0 0 1024 1024" enable-background="new 0 0 1024 1024" xml:space="preserve">
<path fill="#000000" opacity="1.000000" stroke="none" 
	d="
M937.000000,1025.000000 
	C624.666687,1025.000000 312.833344,1025.000000 1.000000,1025.000000 
	C1.000000,683.666687 1.000000,342.333344 1.000000,1.000000 
	C342.333344,1.000000 683.666687,1.000000 1025.000000,1.000000 
	C1025.000000,342.333344 1025.000000,683.666687 1025.000000,1025.000000 
	C995.833313,1025.000000 966.666687,1025.000000 937.000000,1025.000000 
M857.036377,587.720947 
	C868.066528,542.251099 879.096680,496.781281 890.170715,451.130493 
	C879.751282,451.130493 869.853882,451.130493 859.766968,451.130493 
	C846.451599,510.366821 833.191711,569.356262 820.006470,628.013550 
	C815.935181,629.471802 815.406738,627.081787 814.649048,624.463989 
	C801.813293,580.120422 788.911621,535.795959 776.024963,491.467102 
	C772.094604,477.947296 768.165344,464.427216 764.212036,450.826447 
	C754.964966,450.826447 746.116699,451.220337 737.326355,450.677246 
	C732.135437,450.356537 730.318848,452.125275 728.972717,456.968903 
	C713.451843,512.814575 697.698975,568.595886 681.896484,624.362732 
	C681.457458,625.912231 679.779968,627.110718 678.679932,628.472839 
	C677.711914,627.002014 676.224609,625.651489 675.851929,624.042786 
	C666.474487,583.566772 657.220642,543.062195 647.930176,502.566010 
	C643.992676,485.402802 640.021484,468.247345 636.074890,451.128662 
	C625.554749,451.128662 615.317322,451.128662 604.741211,451.128662 
	C622.291687,522.782043 639.752808,594.070679 657.252136,665.515320 
	C669.091553,665.515320 680.589355,665.256287 692.065125,665.645508 
	C696.520447,665.796631 697.915771,664.099121 699.019287,660.171570 
	C713.709717,607.888062 728.544067,555.644958 743.459290,503.425110 
	C743.946716,501.718384 745.671631,500.365112 746.819580,498.847076 
	C747.922974,500.382080 749.545959,501.762756 750.054321,503.474487 
	C765.703247,556.166992 781.271667,608.883545 796.721863,661.634644 
	C797.568726,664.525940 798.574646,665.660034 801.731934,665.597595 
	C812.558289,665.383301 823.393066,665.415833 834.221191,665.579651 
	C837.230530,665.625183 838.459717,664.869751 839.206970,661.697998 
	C844.960693,637.276184 850.984070,612.917969 857.036377,587.720947 
M303.473053,568.499634 
	C303.473053,600.750610 303.473053,633.001526 303.473053,665.188354 
	C314.459351,665.188354 324.689850,665.188354 335.177612,665.188354 
	C335.177612,663.877686 335.177643,662.897278 335.177612,661.916870 
	C335.177002,617.420227 335.293427,572.923035 335.079102,528.427429 
	C335.035156,519.304016 334.387848,510.081940 332.904022,501.089264 
	C330.186432,484.619263 323.990692,469.728394 309.886475,459.435394 
	C299.495178,451.852051 287.505920,448.672241 274.936523,447.440247 
	C243.763138,444.384796 216.799835,451.818420 197.604416,478.635468 
	C196.590652,480.051727 194.329620,480.575256 192.649231,481.514374 
	C192.119217,479.801453 191.131073,478.089691 191.126724,476.375427 
	C191.036942,441.045013 191.059189,405.714264 191.059189,370.383606 
	C191.059189,368.575958 191.059189,366.768311 191.059189,364.822021 
	C180.309540,364.822021 169.906586,364.822021 159.465302,364.822021 
	C159.465302,465.098022 159.465302,565.032349 159.465302,665.193237 
	C170.068939,665.193237 180.450104,665.193237 191.059189,665.193237 
	C191.059189,663.043884 191.059189,661.219727 191.059189,659.395630 
	C191.059204,625.898132 190.910706,592.399658 191.151550,558.903870 
	C191.221970,549.109314 191.816422,539.239685 193.193497,529.549866 
	C196.004044,509.773773 204.052246,492.639038 222.275833,482.548920 
	C239.700577,472.901093 258.486542,471.669952 277.430328,477.360443 
	C288.224487,480.602905 295.919128,488.084564 299.091461,499.041809 
	C301.152740,506.161469 302.685028,513.637756 303.002106,521.016663 
	C303.666962,536.489136 303.373230,552.002808 303.473053,568.499634 
M463.941406,450.455383 
	C436.825531,457.901672 417.038971,474.329102 405.095123,499.688354 
	C390.984833,529.647522 389.839691,561.075500 396.836151,592.890320 
	C402.639679,619.280579 416.209473,640.858765 439.563019,655.380432 
	C460.860443,668.623535 484.187988,671.626343 508.700623,668.544617 
	C522.648499,666.791016 535.544128,662.452759 547.149231,654.466003 
	C562.549866,643.867126 572.154114,629.214844 577.683838,611.443237 
	C571.412292,607.770813 565.552795,604.316101 559.669861,600.901611 
	C554.272156,597.768799 553.359253,598.027344 550.837830,603.780212 
	C539.950928,628.619629 521.168579,641.109375 493.857544,641.179565 
	C464.814728,641.254211 442.850586,626.645020 433.011414,599.304443 
	C424.055267,574.417542 423.967194,548.964783 430.760651,523.660583 
	C443.244965,477.159149 485.806305,466.743500 522.318848,480.466492 
	C534.598755,485.081787 542.901001,494.892975 548.803284,506.502777 
	C550.504150,509.848419 552.771912,510.545105 555.562866,508.596893 
	C562.488098,503.762756 569.231262,498.667755 575.960449,493.741302 
	C566.158508,471.372955 547.580811,456.633118 528.416748,451.370148 
	C507.324371,445.577606 486.048645,445.088104 463.941406,450.455383 
z"/>
<path fill="#FDFDFD" opacity="1.000000" stroke="none" 
	d="
M856.980042,588.130493 
	C850.984070,612.917969 844.960693,637.276184 839.206970,661.697998 
	C838.459717,664.869751 837.230530,665.625183 834.221191,665.579651 
	C823.393066,665.415833 812.558289,665.383301 801.731934,665.597595 
	C798.574646,665.660034 797.568726,664.525940 796.721863,661.634644 
	C781.271667,608.883545 765.703247,556.166992 750.054321,503.474487 
	C749.545959,501.762756 747.922974,500.382080 746.819580,498.847076 
	C745.671631,500.365112 743.946716,501.718384 743.459290,503.425110 
	C728.544067,555.644958 713.709717,607.888062 699.019287,660.171570 
	C697.915771,664.099121 696.520447,665.796631 692.065125,665.645508 
	C680.589355,665.256287 669.091553,665.515320 657.252136,665.515320 
	C639.752808,594.070679 622.291687,522.782043 604.741211,451.128662 
	C615.317322,451.128662 625.554749,451.128662 636.074890,451.128662 
	C640.021484,468.247345 643.992676,485.402802 647.930176,502.566010 
	C657.220642,543.062195 666.474487,583.566772 675.851929,624.042786 
	C676.224609,625.651489 677.711914,627.002014 678.679932,628.472839 
	C679.779968,627.110718 681.457458,625.912231 681.896484,624.362732 
	C697.698975,568.595886 713.451843,512.814575 728.972717,456.968903 
	C730.318848,452.125275 732.135437,450.356537 737.326355,450.677246 
	C746.116699,451.220337 754.964966,450.826447 764.212036,450.826447 
	C768.165344,464.427216 772.094604,477.947296 776.024963,491.467102 
	C788.911621,535.795959 801.813293,580.120422 814.649048,624.463989 
	C815.406738,627.081787 815.935181,629.471802 820.006470,628.013550 
	C833.191711,569.356262 846.451599,510.366821 859.766968,451.130493 
	C869.853882,451.130493 879.751282,451.130493 890.170715,451.130493 
	C879.096680,496.781281 868.066528,542.251099 856.980042,588.130493 
z"/>
<path fill="#FCFCFC" opacity="1.000000" stroke="none" 
	d="
M303.473083,567.999634 
	C303.373230,552.002808 303.666962,536.489136 303.002106,521.016663 
	C302.685028,513.637756 301.152740,506.161469 299.091461,499.041809 
	C295.919128,488.084564 288.224487,480.602905 277.430328,477.360443 
	C258.486542,471.669952 239.700577,472.901093 222.275833,482.548920 
	C204.052246,492.639038 196.004044,509.773773 193.193497,529.549866 
	C191.816422,539.239685 191.221970,549.109314 191.151550,558.903870 
	C190.910706,592.399658 191.059204,625.898132 191.059189,659.395630 
	C191.059189,661.219727 191.059189,663.043884 191.059189,665.193237 
	C180.450104,665.193237 170.068939,665.193237 159.465302,665.193237 
	C159.465302,565.032349 159.465302,465.098022 159.465302,364.822021 
	C169.906586,364.822021 180.309540,364.822021 191.059189,364.822021 
	C191.059189,366.768311 191.059189,368.575958 191.059189,370.383606 
	C191.059189,405.714264 191.036942,441.045013 191.126724,476.375427 
	C191.131073,478.089691 192.119217,479.801453 192.649231,481.514404 
	C194.329620,480.575256 196.590652,480.051727 197.604416,478.635468 
	C216.799835,451.818420 243.763138,444.384796 274.936523,447.440247 
	C287.505920,448.672241 299.495178,451.852051 309.886475,459.435394 
	C323.990692,469.728394 330.186432,484.619263 332.904022,501.089264 
	C334.387848,510.081940 335.035156,519.304016 335.079102,528.427429 
	C335.293427,572.923035 335.177002,617.420227 335.177612,661.916870 
	C335.177643,662.897278 335.177612,663.877686 335.177612,665.188354 
	C324.689850,665.188354 314.459351,665.188354 303.473053,665.188354 
	C303.473053,633.001526 303.473053,600.750610 303.473083,567.999634 
z"/>
<path fill="#FDFDFD" opacity="1.000000" stroke="none" 
	d="
M464.326599,450.321777 
	C486.048645,445.088104 507.324371,445.577606 528.416748,451.370148 
	C547.580811,456.633118 566.158508,471.372955 575.960449,493.741302 
	C569.231262,498.667755 562.488098,503.762756 555.562866,508.596893 
	C552.771912,510.545105 550.504150,509.848419 548.803284,506.502777 
	C542.901001,494.892975 534.598755,485.081787 522.318848,480.466492 
	C485.806305,466.743500 443.244965,477.159149 430.760651,523.660583 
	C423.967194,548.964783 424.055267,574.417542 433.011414,599.304443 
	C442.850586,626.645020 464.814728,641.254211 493.857544,641.179565 
	C521.168579,641.109375 539.950928,628.619629 550.837830,603.780212 
	C553.359253,598.027344 554.272156,597.768799 559.669861,600.901611 
	C565.552795,604.316101 571.412292,607.770813 577.683838,611.443237 
	C572.154114,629.214844 562.549866,643.867126 547.149231,654.466003 
	C535.544128,662.452759 522.648499,666.791016 508.700623,668.544617 
	C484.187988,671.626343 460.860443,668.623535 439.563019,655.380432 
	C416.209473,640.858765 402.639679,619.280579 396.836151,592.890320 
	C389.839691,561.075500 390.984833,529.647522 405.095123,499.688354 
	C417.038971,474.329102 436.825531,457.901672 464.326599,450.321777 
z"/>
</svg>