<svg version="1.1" id="Layer_1" xmlns="http://www.w3.org/2000/svg" xmlns:xlink="http://www.w3.org/1999/xlink" x="0px" y="0px"
	 width="100%" viewBox="0 0 1024 1024" enable-background="new 0 0 1024 1024" xml:space="preserve">
<path fill="#FFFFFF" opacity="1.000000" stroke="none" 
	d="
M471.000000,1025.000000 
	C314.000000,1025.000000 157.500000,1025.000000 1.000000,1025.000000 
	C1.000000,683.666687 1.000000,342.333344 1.000000,1.000000 
	C342.333344,1.000000 683.666687,1.000000 1025.000000,1.000000 
	C1025.000000,342.333344 1025.000000,683.666687 1025.000000,1025.000000 
	C840.500000,1025.000000 656.000000,1025.000000 471.000000,1025.000000 
M472.500000,777.033875 
	C547.159851,777.033813 621.819702,777.036316 696.479553,777.023926 
	C699.476624,777.023438 702.506653,777.142578 705.465698,776.767273 
	C745.989624,771.628296 777.018738,736.746216 777.039612,696.063110 
	C777.102295,574.074097 777.108459,452.085022 777.038330,330.096008 
	C777.012695,285.426178 740.241333,248.970917 695.482239,248.968430 
	C573.826538,248.961655 452.170776,248.961655 330.515045,248.968430 
	C285.738098,248.970917 248.994080,285.368256 248.962891,330.089355 
	C248.877808,452.078308 248.924271,574.067383 248.976669,696.056396 
	C248.978516,700.364380 249.343292,704.709106 249.966507,708.974182 
	C255.458267,746.558289 290.619568,777.004211 328.512848,777.026367 
	C376.175232,777.054260 423.837616,777.033569 472.500000,777.033875 
z"/>
<path fill="#000000" opacity="1.000000" stroke="none" 
	d="
M472.000000,777.033875 
	C423.837616,777.033569 376.175232,777.054260 328.512848,777.026367 
	C290.619568,777.004211 255.458267,746.558289 249.966507,708.974182 
	C249.343292,704.709106 248.978516,700.364380 248.976669,696.056396 
	C248.924271,574.067383 248.877808,452.078308 248.962891,330.089355 
	C248.994080,285.368256 285.738098,248.970917 330.515045,248.968430 
	C452.170776,248.961655 573.826538,248.961655 695.482239,248.968430 
	C740.241333,248.970917 777.012695,285.426178 777.038330,330.096008 
	C777.108459,452.085022 777.102295,574.074097 777.039612,696.063110 
	C777.018738,736.746216 745.989624,771.628296 705.465698,776.767273 
	C702.506653,777.142578 699.476624,777.023438 696.479553,777.023926 
	C621.819702,777.036316 547.159851,777.033813 472.000000,777.033875 
M631.147095,581.790527 
	C636.105286,557.980103 641.063538,534.169739 646.021729,510.359314 
	C647.141174,512.424011 647.576965,514.366882 648.001038,516.312256 
	C653.666443,542.298767 659.309326,568.290161 665.061890,594.257385 
	C665.326355,595.451355 666.535767,597.328918 667.367065,597.362610 
	C673.778198,597.622498 680.204651,597.505737 686.569458,597.505737 
	C694.846008,556.717285 702.973694,516.662598 711.134583,476.444031 
	C704.668518,476.444031 698.576172,476.444031 692.398743,476.444031 
	C686.653564,508.008636 680.956482,539.309021 675.259460,570.609314 
	C668.249268,540.272827 662.224060,510.113007 656.029846,479.987946 
	C655.734741,478.552795 654.028809,476.429291 652.835815,476.328247 
	C647.924805,475.912262 642.958069,476.154205 637.764893,476.154205 
	C631.587341,507.782135 625.496033,538.968384 619.404724,570.154602 
	C619.039917,570.123779 618.675049,570.092957 618.310242,570.062134 
	C612.626038,538.784180 606.941833,507.506195 601.282410,476.364441 
	C594.701233,476.364441 588.740295,476.364441 582.287048,476.364441 
	C590.607605,516.941101 598.866455,557.216797 607.095154,597.345459 
	C614.418762,597.345459 621.043945,597.345459 627.957764,597.345459 
	C628.995972,592.369812 630.011780,587.501465 631.147095,581.790527 
M318.929565,569.500000 
	C319.006592,558.674011 318.483429,547.802612 319.297760,537.032410 
	C320.600403,519.804077 326.533936,504.594055 341.662750,494.476379 
	C364.446533,479.239258 389.856293,491.107880 391.142639,518.211914 
	C392.160217,539.652649 391.584656,561.169250 391.704742,582.652161 
	C391.731537,587.448059 391.708679,592.244202 391.708679,597.210327 
	C397.866791,597.210327 403.588013,597.210327 409.323242,597.210327 
	C409.323242,569.952576 409.426819,543.005859 409.223175,516.061462 
	C409.188477,511.470642 408.191467,506.798035 407.030579,502.320984 
	C403.128357,487.271851 393.682709,477.640228 378.229736,474.704712 
	C358.514099,470.959442 340.672028,473.843842 327.602264,490.884003 
	C324.444275,495.001434 322.069641,499.719727 318.804321,505.023193 
	C318.804321,478.725128 318.804321,453.255646 318.804321,427.699158 
	C312.622101,427.699158 307.013580,427.699158 301.200012,427.699158 
	C301.200012,484.306946 301.200012,540.693420 301.200012,597.231079 
	C307.161255,597.231079 312.911926,597.231079 318.929535,597.231079 
	C318.929535,588.128357 318.929535,579.314209 318.929565,569.500000 
M539.884827,491.957336 
	C535.785339,488.132019 532.160095,483.555908 527.502563,480.614105 
	C509.379181,469.167023 481.130890,471.489410 463.231293,485.457062 
	C446.860840,498.231476 440.656189,515.846924 440.239777,535.802673 
	C439.876282,553.221313 444.778229,569.076782 457.240295,581.780334 
	C473.657043,598.515198 494.137756,602.514160 516.494141,599.468384 
	C533.514709,597.149536 546.997559,588.827515 556.976685,574.304382 
	C552.804138,571.444641 548.734680,568.655579 544.611328,565.829529 
	C543.950256,566.584473 543.487183,567.058472 543.085571,567.579712 
	C524.905090,591.177673 485.480469,591.561279 467.729614,567.832764 
	C455.346497,551.279602 455.315552,532.492676 462.332794,514.114685 
	C474.964447,481.032532 518.554749,482.470490 532.245483,502.718445 
	C536.533569,509.060364 538.581482,516.916992 541.848389,524.531494 
	C545.625671,524.531494 550.702759,524.531494 555.717896,524.531494 
	C555.717896,508.301514 555.717896,492.387512 555.717896,476.465576 
	C550.359802,476.465576 545.296997,476.465576 539.988220,476.465576 
	C539.988220,481.585999 539.988220,486.401825 539.884827,491.957336 
z"/>
<path fill="#FBFBFB" opacity="1.000000" stroke="none" 
	d="
M631.087341,582.211792 
	C630.011780,587.501465 628.995972,592.369812 627.957764,597.345459 
	C621.043945,597.345459 614.418762,597.345459 607.095154,597.345459 
	C598.866455,557.216797 590.607605,516.941101 582.287048,476.364441 
	C588.740295,476.364441 594.701233,476.364441 601.282410,476.364441 
	C606.941833,507.506195 612.626038,538.784180 618.310242,570.062134 
	C618.675049,570.092957 619.039917,570.123779 619.404724,570.154602 
	C625.496033,538.968384 631.587341,507.782135 637.764893,476.154205 
	C642.958069,476.154205 647.924805,475.912262 652.835815,476.328247 
	C654.028809,476.429291 655.734741,478.552795 656.029846,479.987946 
	C662.224060,510.113007 668.249268,540.272827 675.259460,570.609314 
	C680.956482,539.309021 686.653564,508.008636 692.398743,476.444031 
	C698.576172,476.444031 704.668518,476.444031 711.134583,476.444031 
	C702.973694,516.662598 694.846008,556.717285 686.569458,597.505737 
	C680.204651,597.505737 673.778198,597.622498 667.367065,597.362610 
	C666.535767,597.328918 665.326355,595.451355 665.061890,594.257385 
	C659.309326,568.290161 653.666443,542.298767 648.001038,516.312256 
	C647.576965,514.366882 647.141174,512.424011 646.021729,510.359314 
	C641.063538,534.169739 636.105286,557.980103 631.087341,582.211792 
z"/>
<path fill="#FBFBFB" opacity="1.000000" stroke="none" 
	d="
M318.929565,570.000000 
	C318.929535,579.314209 318.929535,588.128357 318.929535,597.231079 
	C312.911926,597.231079 307.161255,597.231079 301.200012,597.231079 
	C301.200012,540.693420 301.200012,484.306946 301.200012,427.699158 
	C307.013580,427.699158 312.622101,427.699158 318.804321,427.699158 
	C318.804321,453.255646 318.804321,478.725128 318.804321,505.023193 
	C322.069641,499.719727 324.444275,495.001434 327.602264,490.884003 
	C340.672028,473.843842 358.514099,470.959442 378.229736,474.704712 
	C393.682709,477.640228 403.128357,487.271851 407.030579,502.320984 
	C408.191467,506.798035 409.188477,511.470642 409.223175,516.061462 
	C409.426819,543.005859 409.323242,569.952576 409.323242,597.210327 
	C403.588013,597.210327 397.866791,597.210327 391.708679,597.210327 
	C391.708679,592.244202 391.731537,587.448059 391.704742,582.652161 
	C391.584656,561.169250 392.160217,539.652649 391.142639,518.211914 
	C389.856293,491.107880 364.446533,479.239258 341.662750,494.476379 
	C326.533936,504.594055 320.600403,519.804077 319.297760,537.032410 
	C318.483429,547.802612 319.006592,558.674011 318.929565,570.000000 
z"/>
<path fill="#FBFBFB" opacity="1.000000" stroke="none" 
	d="
M539.936523,491.587463 
	C539.988220,486.401825 539.988220,481.585999 539.988220,476.465576 
	C545.296997,476.465576 550.359802,476.465576 555.717896,476.465576 
	C555.717896,492.387512 555.717896,508.301514 555.717896,524.531494 
	C550.702759,524.531494 545.625671,524.531494 541.848389,524.531494 
	C538.581482,516.916992 536.533569,509.060364 532.245483,502.718445 
	C518.554749,482.470490 474.964447,481.032532 462.332794,514.114685 
	C455.315552,532.492676 455.346497,551.279602 467.729614,567.832764 
	C485.480469,591.561279 524.905090,591.177673 543.085571,567.579712 
	C543.487183,567.058472 543.950256,566.584473 544.611328,565.829529 
	C548.734680,568.655579 552.804138,571.444641 556.976685,574.304382 
	C546.997559,588.827515 533.514709,597.149536 516.494141,599.468384 
	C494.137756,602.514160 473.657043,598.515198 457.240295,581.780334 
	C444.778229,569.076782 439.876282,553.221313 440.239777,535.802673 
	C440.656189,515.846924 446.860840,498.231476 463.231293,485.457062 
	C481.130890,471.489410 509.379181,469.167023 527.502563,480.614105 
	C532.160095,483.555908 535.785339,488.132019 539.936523,491.587463 
z"/>
</svg>